<?xml version="1.0" encoding="utf-8"?>
<!-- Generator: Adobe Illustrator 23.0.1, SVG Export Plug-In . SVG Version: 6.00 Build 0)  -->
<svg version="1.1" id="Darth_Vader" xmlns="http://www.w3.org/2000/svg" xmlns:xlink="http://www.w3.org/1999/xlink" x="0px"
	 y="0px" viewBox="0 0 512 512" style="enable-background:new 0 0 512 512;" xml:space="preserve">
<style type="text/css">
	.st0{fill:#FFFFFF;}
</style>
<path class="st0" d="M46,435.1c1.9-59.5,21.3-139.9,56.8-205.6c-2.9-10.6-4.5-21.7-4.5-33.2c0-67.3,53.4-123.5,124.5-137v116.2
	c0,15.5,12.6,28.2,28.2,28.2h9.8c15.6,0,28.2-12.6,28.2-28.2V59.4c71.2,13.5,124.5,69.7,124.5,137c0,11.4-1.5,22.5-4.5,33.2
	c35.5,65.6,55,146.1,56.8,205.6c-7.4-20.6-19.7-53.2-34.3-86.4c-33.4-75.8-61.4-116.6-85.7-124.7c-44.7-14.9-77.5,5-90,14.7
	c-12.5-9.7-45.3-29.6-90-14.7c-24.3,8.1-52.3,48.9-85.7,124.7C65.7,381.9,53.4,414.6,46,435.1z M227.6,426.8v-33.5l-24.2,33.5H227.6
	z M251.1,188.3h9.8c7,0,12.6-5.6,12.6-12.6V62.8c0-7-5.7-12.6-12.6-12.6h-9.8c-7,0-12.6,5.7-12.6,12.6v112.9
	C238.5,182.6,244.1,188.3,251.1,188.3z M284.4,426.8h24.1l-24.1-33.4V426.8z M417.4,354.9c14,31.8,25.9,63.1,33.2,83.5
	c-22.3-8.2-44.8-15-67.4-20.5l26.2-61l-66.8,104.9H169.4l-66.8-104.9l25.2,58.8c-22.8,5.6-44.9,12.7-66.1,21.6
	c7.4-20.4,19.1-51.2,32.8-82.5c40.7-92.4,65.3-112.4,76.3-116.1c47.1-15.7,78.3,14.4,79.6,15.6l5.5,5.4l5.5-5.4
	c1.3-1.3,32.5-31.4,79.6-15.6C352.1,242.5,376.7,262.5,417.4,354.9z M195.9,339.1c17.5,0,42.6-50.2,42.6-50.2s-17.9-36.3-70.1-17.5
	C133.4,284,178.3,339.1,195.9,339.1z M339,442.4l-17.8-24.7l-51.1-70.8c2.2-2.9,3.4-6.5,3.4-10.4c0-9.7-7.8-17.5-17.5-17.5
	c-9.7,0-17.5,7.8-17.5,17.5c0,3.9,1.3,7.5,3.4,10.4l-51.1,70.8L173,442.4h30.4h105.1H339z M343.6,271.4
	c-52.1-18.8-70.1,17.5-70.1,17.5s25.1,50.2,42.6,50.2C333.7,339.1,378.6,284,343.6,271.4z M239,426.8h11.4v-65L239,377.6V426.8z
	 M261.7,426.8h11.4v-49.1L261.7,362V426.8z"/>
</svg>
